<svg width="22" height="22" viewBox="0 0 22 22" fill="none" xmlns="http://www.w3.org/2000/svg">
<path d="M18.5292 11C20.4849 10.3758 22.0918 9.61715 21.9959 9.09034C21.9029 8.56353 20.1303 8.39176 18.073 8.46334C19.6944 7.21789 20.9411 5.96382 20.6679 5.5C20.3977 5.03618 18.6716 5.47139 16.7653 6.23297C17.8579 4.51511 18.5902 2.91742 18.1747 2.57385C17.7591 2.23028 16.2887 3.22091 14.7631 4.57802C15.1932 2.59676 15.3298 0.847427 14.8184 0.664188C14.3069 0.48095 13.2724 1.90673 12.3077 3.69616C12.0229 1.68913 11.5434 0 11 0C10.4566 0 9.97712 1.68913 9.69235 3.69616C8.72759 1.90673 7.69018 0.48095 7.18165 0.664188C6.67021 0.847427 6.80679 2.59676 7.23686 4.57802C5.70836 3.22091 4.24088 2.23028 3.82534 2.57385C3.40979 2.91742 4.14499 4.51511 5.2347 6.23297C3.32843 5.47139 1.60232 5.03618 1.33207 5.5C1.06183 5.96382 2.30555 7.21789 3.92704 8.46334C1.86967 8.39176 0.0999756 8.56353 0.00408091 9.09034C-0.0889078 9.61715 1.51515 10.3758 3.47082 11C1.51515 11.6242 -0.0918138 12.3829 0.00408091 12.9097C0.0970697 13.4365 1.86967 13.6082 3.92704 13.5367C2.30555 14.7821 1.05892 16.0362 1.33207 16.5C1.60232 16.9638 3.32843 16.5286 5.2347 15.767C4.14208 17.4849 3.40979 19.0824 3.82534 19.426C4.24088 19.7696 5.71127 18.7789 7.23686 17.4218C6.80679 19.4031 6.67021 21.1526 7.18165 21.3358C7.69309 21.5191 8.72759 20.0931 9.69235 18.3037C9.97712 20.3107 10.4566 22 11 22C11.5434 22 12.0229 20.3107 12.3077 18.3037C13.2724 20.0931 14.3098 21.5191 14.8184 21.3358C15.3298 21.1526 15.1932 19.4031 14.7631 17.4218C16.2916 18.7789 17.7591 19.7696 18.1747 19.426C18.5902 19.0824 17.855 17.4849 16.7653 15.767C18.6716 16.5286 20.3977 16.9638 20.6679 16.5C20.9382 16.0362 19.6944 14.7821 18.073 13.5367C20.1303 13.6082 21.9 13.4365 21.9959 12.9097C22.0889 12.3829 20.4849 11.6242 18.5292 11Z" fill="#CAFF01"/>
</svg>
